<?xml version="1.0" standalone="no"?>
<!DOCTYPE svg PUBLIC "-//W3C//DTD SVG 20010904//EN"
 "http://www.w3.org/TR/2001/REC-SVG-20010904/DTD/svg10.dtd">
<svg version="1.0" xmlns="http://www.w3.org/2000/svg"
 width="548.000000pt" height="476.000000pt" viewBox="0 0 548.000000 476.000000"
 preserveAspectRatio="xMidYMid meet">

<g transform="translate(0.000000,476.000000) scale(0.100000,-0.100000)"
fill="#000000" stroke="none">
<path d="M2809 3581 l-24 -19 -5 -831 -5 -830 -110 96 c-60 52 -121 99 -134
104 -54 22 -114 -34 -90 -84 14 -28 360 -329 394 -341 16 -6 34 -6 50 0 38 14
382 315 395 346 8 19 9 32 1 46 -14 26 -65 44 -94 33 -12 -5 -71 -52 -132
-105 -60 -53 -112 -96 -115 -96 -3 0 -5 374 -5 831 l0 831 -24 19 c-30 24 -72
24 -102 0z"/>
<path d="M1660 1475 l0 -45 1210 0 1210 0 0 45 0 45 -1210 0 -1210 0 0 -45z"/>
</g>
</svg>
