<?xml version="1.0" standalone="no"?>
<!DOCTYPE svg PUBLIC "-//W3C//DTD SVG 20010904//EN"
 "http://www.w3.org/TR/2001/REC-SVG-20010904/DTD/svg10.dtd">
<svg version="1.0" xmlns="http://www.w3.org/2000/svg"
 width="555.000000pt" height="497.000000pt" viewBox="0 0 555.000000 497.000000"
 preserveAspectRatio="xMidYMid meet">

<g transform="translate(0.000000,497.000000) scale(0.100000,-0.100000)"
fill="#000000" stroke="none">
<path d="M1645 3821 c-48 -22 -69 -44 -90 -94 -13 -30 -15 -95 -15 -401 l0
-364 -50 -12 c-58 -14 -115 -70 -125 -122 -6 -30 190 -1273 215 -1368 11 -42
54 -91 101 -116 33 -18 83 -19 1164 -19 l1130 0 42 22 c44 24 74 56 92 100 13
32 200 1226 208 1323 3 52 0 72 -15 100 -24 44 -71 76 -122 85 l-40 7 0 166
c0 190 -11 227 -77 272 l-37 25 -625 3 c-555 2 -627 4 -643 19 -9 8 -55 83
-100 166 -91 165 -120 201 -176 217 -22 6 -186 10 -417 10 -347 0 -383 -2
-420 -19z m838 -83 c9 -7 55 -83 102 -168 98 -177 106 -186 160 -211 37 -17
80 -19 651 -19 l611 0 24 -26 c23 -25 24 -32 27 -190 l3 -164 -60 0 -61 0 0
114 c0 91 -3 118 -16 130 -14 14 -126 16 -1084 16 l-1069 0 -15 -22 c-12 -17
-16 -49 -16 -130 l0 -108 -55 0 -55 0 0 374 0 375 26 20 c26 20 37 21 418 21
298 0 396 -3 409 -12z m1367 -693 l0 -85 -1010 0 -1010 0 0 85 0 85 1010 0
1010 0 0 -85z m351 -186 c43 -23 42 -38 -36 -542 -42 -265 -87 -556 -101 -647
-29 -192 -37 -216 -78 -241 -30 -18 -73 -19 -1138 -19 -815 0 -1114 3 -1132
12 -14 6 -33 22 -41 34 -9 14 -38 161 -70 356 -30 183 -77 472 -105 641 -27
170 -50 322 -50 340 0 18 9 40 22 54 l21 23 1344 0 c929 0 1350 -3 1364 -11z"/>
</g>
</svg>
