<?xml version="1.0" standalone="no"?>
<!DOCTYPE svg PUBLIC "-//W3C//DTD SVG 20010904//EN"
 "http://www.w3.org/TR/2001/REC-SVG-20010904/DTD/svg10.dtd">
<svg version="1.0" xmlns="http://www.w3.org/2000/svg"
 width="581.000000pt" height="475.000000pt" viewBox="0 0 581.000000 475.000000"
 preserveAspectRatio="xMidYMid meet">

<g transform="translate(0.000000,475.000000) scale(0.100000,-0.100000)"
fill="#000000" stroke="none">
<path d="M2250 3436 l0 -325 -278 -3 c-308 -3 -312 -4 -352 -71 -19 -31 -20
-56 -20 -710 0 -765 -4 -729 74 -767 38 -18 61 -20 244 -20 l202 0 0 375 0
375 915 0 915 0 0 -375 0 -375 205 0 c184 0 210 2 244 20 74 37 71 6 71 767 0
654 -1 679 -20 710 -40 67 -44 68 -352 71 l-278 3 0 114 0 114 -192 211 -192
210 -593 0 -593 0 0 -324z m920 -101 l0 -225 225 0 225 0 0 -150 0 -150 -585
0 -585 0 0 375 0 375 360 0 360 0 0 -225z m303 92 c59 -64 107 -120 107 -122
0 -3 -49 -5 -110 -5 l-110 0 0 127 c0 69 2 124 3 122 2 -2 52 -57 110 -122z
m-1480 -536 c84 -55 83 -161 -2 -218 -84 -56 -191 4 -191 108 0 76 52 127 130
128 19 1 48 -7 63 -18z"/>
<path d="M2253 1953 c4 -124 7 -361 7 -525 l0 -298 775 0 775 0 0 525 0 525
-782 0 -781 0 6 -227z m1367 -298 l0 -325 -585 0 -585 0 0 325 0 325 585 0
585 0 0 -325z"/>
<path d="M2710 1785 l0 -65 325 0 325 0 0 65 0 65 -325 0 -325 0 0 -65z"/>
<path d="M2710 1525 l0 -65 325 0 325 0 0 65 0 65 -325 0 -325 0 0 -65z"/>
</g>
</svg>
