<?xml version="1.0" standalone="no"?>
<!DOCTYPE svg PUBLIC "-//W3C//DTD SVG 20010904//EN"
 "http://www.w3.org/TR/2001/REC-SVG-20010904/DTD/svg10.dtd">
<svg version="1.0" xmlns="http://www.w3.org/2000/svg"
 width="568.000000pt" height="490.000000pt" viewBox="0 0 568.000000 490.000000"
 preserveAspectRatio="xMidYMid meet">

<g transform="translate(0.000000,490.000000) scale(0.100000,-0.100000)"
fill="#000000" stroke="none">
<path d="M4185 3360 l-420 -420 263 -262 262 -263 341 341 341 341 -26 75
c-41 122 -113 278 -179 389 -68 112 -143 219 -155 219 -4 0 -196 -189 -427
-420z"/>
<path d="M3694 2777 c-147 -131 -278 -219 -411 -275 l-67 -28 -18 -85 c-41
-193 -128 -402 -234 -567 -61 -95 -59 -93 -150 -107 l-40 -6 4 34 c10 85 -43
170 -115 183 -50 9 -134 -12 -220 -56 l-74 -39 -36 40 c-50 56 -124 71 -200
42 -13 -5 -14 1 -8 43 10 74 -11 175 -48 230 -34 52 -100 99 -162 115 -102 28
-312 -4 -374 -57 -69 -58 -32 -164 57 -166 15 0 60 10 101 22 96 30 175 24
209 -15 58 -67 2 -268 -142 -505 -75 -124 -79 -149 -33 -195 63 -63 100 -47
205 88 86 111 217 247 238 247 9 0 8 -14 -4 -58 -19 -72 -11 -107 31 -133 47
-29 87 -20 150 37 52 47 192 144 208 144 12 0 12 0 -6 -50 -28 -79 -17 -128
35 -155 27 -14 46 -13 217 10 282 38 278 37 375 98 172 108 361 186 552 228
100 22 106 25 106 44 0 7 23 58 50 114 56 111 129 215 238 336 l71 80 -212
213 c-116 116 -214 212 -217 212 -3 0 -37 -29 -76 -63z m-136 -583 c33 -38 30
-86 -10 -119 -22 -19 -39 -25 -57 -21 -23 4 -52 -21 -243 -212 -215 -214 -217
-216 -238 -197 -11 10 -20 23 -20 29 0 6 95 106 210 221 195 195 210 212 210
246 0 35 24 69 60 82 26 10 64 -3 88 -29z"/>
</g>
</svg>
